<?xml version="1.0" encoding="utf-8"?>
<!-- Generator: Adobe Illustrator 25.0.0, SVG Export Plug-In . SVG Version: 6.00 Build 0)  -->
<svg version="1.1" id="Layer_1" xmlns="http://www.w3.org/2000/svg" xmlns:xlink="http://www.w3.org/1999/xlink" x="0px" y="0px"
	 viewBox="0 0 765 458" style="enable-background:new 0 0 765 458;" xml:space="preserve">
<style type="text/css">
	.st0{fill:#FFFFFF;}
	.st1{fill-rule:evenodd;clip-rule:evenodd;fill:#FF9900;}
</style>
<g>
	<path class="st0" d="M216.8,166.2c0,9.4,1,17,2.8,22.6c2,5.6,4.6,11.7,8.1,18.3c1.3,2,1.8,4.1,1.8,5.8c0,2.5-1.5,5.1-4.8,7.6
		l-16,10.7c-2.3,1.5-4.6,2.3-6.6,2.3c-2.5,0-5.1-1.3-7.6-3.6c-3.6-3.8-6.6-7.9-9.1-11.9c-2.5-4.3-5.1-9.1-7.9-15
		c-19.8,23.4-44.7,35-74.6,35c-21.3,0-38.3-6.1-50.8-18.3c-12.4-12.2-18.8-28.4-18.8-48.7c0-21.6,7.6-39.1,23.1-52.3
		c15.5-13.2,36.1-19.8,62.2-19.8c8.6,0,17.5,0.8,26.9,2c9.4,1.3,19,3.3,29.2,5.6V88c0-19.3-4.1-32.8-11.9-40.6
		c-8.1-7.9-21.8-11.7-41.4-11.7c-8.9,0-18,1-27.4,3.3s-18.5,5.1-27.4,8.6c-4.1,1.8-7.1,2.8-8.9,3.3s-3,0.8-4.1,0.8
		c-3.6,0-5.3-2.5-5.3-7.9V31.4c0-4.1,0.5-7.1,1.8-8.9c1.3-1.8,3.6-3.6,7.1-5.3c8.9-4.6,19.5-8.4,32-11.4c12.4-3.3,25.6-4.8,39.6-4.8
		c30.2,0,52.3,6.9,66.5,20.6c14,13.7,21.1,34.5,21.1,62.5v82.3H216.8z M113.7,204.8c8.4,0,17-1.5,26.1-4.6c9.1-3,17.3-8.6,24.1-16.2
		c4.1-4.8,7.1-10.2,8.6-16.2s2.5-13.5,2.5-22.1V135c-7.4-1.8-15.2-3.3-23.4-4.3c-8.1-1-16-1.5-23.9-1.5c-17,0-29.4,3.3-37.8,10.2
		s-12.4,16.5-12.4,29.2c0,11.9,3,20.8,9.4,26.9C93.1,201.7,102,204.8,113.7,204.8z M317.6,232.2c-4.6,0-7.6-0.8-9.6-2.5
		c-2-1.5-3.8-5.1-5.3-9.9L242.9,23.5c-1.5-5.1-2.3-8.4-2.3-10.2c0-4.1,2-6.3,6.1-6.3h24.9c4.8,0,8.1,0.8,9.9,2.5
		c2,1.5,3.6,5.1,5.1,9.9l42.7,168.1l39.6-168.1c1.3-5.1,2.8-8.4,4.8-9.9c2-1.5,5.6-2.5,10.2-2.5h20.3c4.8,0,8.1,0.8,10.2,2.5
		c2,1.5,3.8,5.1,4.8,9.9l40.1,170.1l43.9-170.1c1.5-5.1,3.3-8.4,5.1-9.9c2-1.5,5.3-2.5,9.9-2.5h23.6c4.1,0,6.3,2,6.3,6.3
		c0,1.3-0.3,2.5-0.5,4.1c-0.3,1.5-0.8,3.6-1.8,6.3L484.6,220c-1.5,5.1-3.3,8.4-5.3,9.9c-2,1.5-5.3,2.5-9.6,2.5h-21.8
		c-4.8,0-8.1-0.8-10.2-2.5c-2-1.8-3.8-5.1-4.8-10.2L393.5,56l-39.1,163.5c-1.3,5.1-2.8,8.4-4.8,10.2c-2,1.8-5.6,2.5-10.2,2.5H317.6z
		 M643.8,239.1c-13.2,0-26.4-1.5-39.1-4.6c-12.7-3-22.6-6.3-29.2-10.2c-4.1-2.3-6.9-4.8-7.9-7.1c-1-2.3-1.5-4.8-1.5-7.1v-12.9
		c0-5.3,2-7.9,5.8-7.9c1.5,0,3,0.3,4.6,0.8c1.5,0.5,3.8,1.5,6.3,2.5c8.6,3.8,18,6.9,27.9,8.9c10.2,2,20.1,3,30.2,3
		c16,0,28.4-2.8,37.1-8.4c8.6-5.6,13.2-13.7,13.2-24.1c0-7.1-2.3-12.9-6.9-17.8c-4.6-4.8-13.2-9.1-25.6-13.2L622,129.6
		c-18.5-5.8-32.2-14.5-40.6-25.9c-8.4-11.2-12.7-23.6-12.7-36.8c0-10.7,2.3-20.1,6.9-28.2s10.7-15.2,18.3-20.8
		c7.6-5.8,16.2-10.2,26.4-13.2s20.8-4.3,32-4.3c5.6,0,11.4,0.3,17,1c5.8,0.8,11.2,1.8,16.5,2.8c5.1,1.3,9.9,2.5,14.5,4.1
		c4.6,1.5,8.1,3,10.7,4.6c3.6,2,6.1,4.1,7.6,6.3c1.5,2,2.3,4.8,2.3,8.4v11.9c0,5.3-2,8.1-5.8,8.1c-2,0-5.3-1-9.6-3
		c-14.5-6.6-30.7-9.9-48.7-9.9c-14.5,0-25.9,2.3-33.8,7.1S610.8,54,610.8,64.4c0,7.1,2.5,13.2,7.6,18c5.1,4.8,14.5,9.6,27.9,14
		l36.1,11.4c18.3,5.8,31.5,14,39.4,24.4s11.7,22.3,11.7,35.5c0,10.9-2.3,20.8-6.6,29.4c-4.6,8.6-10.7,16.2-18.5,22.3
		c-7.9,6.3-17.3,10.9-28.2,14.2C668.7,237.3,656.7,239.1,643.8,239.1z"/>
	<g>
		<path class="st1" d="M691.8,362.5c-83.5,61.7-204.9,94.4-309.2,94.4c-146.2,0-278-54.1-377.5-143.9c-7.9-7.1-0.8-16.8,8.6-11.2
			c107.6,62.5,240.4,100.3,377.8,100.3c92.7,0,194.5-19.3,288.1-58.9C693.6,336.8,705.5,352.3,691.8,362.5z"/>
		<path class="st1" d="M726.6,322.8c-10.7-13.7-70.6-6.6-97.7-3.3c-8.1,1-9.4-6.1-2-11.4c47.7-33.5,126.2-23.9,135.3-12.7
			c9.1,11.4-2.5,89.9-47.2,127.4c-6.9,5.8-13.5,2.8-10.4-4.8C714.6,392.9,737.2,336.3,726.6,322.8z"/>
	</g>
</g>
</svg>
