<?xml version="1.0" encoding="utf-8"?>
<!-- Generator: Adobe Illustrator 25.0.0, SVG Export Plug-In . SVG Version: 6.00 Build 0)  -->
<svg version="1.1" id="Layer_1" xmlns="http://www.w3.org/2000/svg" xmlns:xlink="http://www.w3.org/1999/xlink" x="0px" y="0px"
	 viewBox="0 0 24 24" style="enable-background:new 0 0 24 24;" xml:space="preserve">
<style type="text/css">
	.st0{fill:#FFFFFF;}
</style>
<path class="st0" d="M17.1,24c-0.7,0-1.2-0.5-1.2-1.2v-3.1c0.1-0.7-0.2-1.4-0.6-2c-0.4-0.5-0.4-1.2,0.1-1.7c0.2-0.2,0.4-0.3,0.7-0.3
	c2.9-0.3,5.6-1.3,5.6-6.4c0-0.9-0.3-1.9-0.8-2.7c-0.5-0.7-0.7-1.6-0.5-2.5c0.1-0.6,0.1-1.1,0-1.7c-0.9,0.3-1.7,0.7-2.5,1.3
	c-0.3,0.2-0.7,0.3-1,0.2c-2.2-0.6-4.5-0.6-6.6,0c-0.3,0.1-0.7,0-1-0.2c-0.8-0.6-1.6-1-2.5-1.3c-0.1,0.6-0.1,1.1,0,1.7
	c0.2,0.9,0,1.8-0.5,2.5C5.6,7.5,5.3,8.4,5.3,9.4c0,4.7,2.3,5.9,5.6,6.3c0.5,0.1,0.8,0.4,1,0.8c0.1,0.4,0,0.9-0.3,1.2
	c-0.5,0.5-0.7,1.2-0.7,1.9v3.2c0,0.7-0.5,1.2-1.2,1.2s-1.2-0.5-1.2-1.2v-0.7c-2.4,0.3-4.8-0.7-6.3-2.5c-0.4-0.4-0.9-0.8-1.4-1.1
	c-0.6-0.2-1-0.8-0.9-1.5c0.2-0.6,0.8-1,1.5-0.9c0.9,0.3,1.7,0.9,2.4,1.6c1.2,1.2,2.4,2.3,4.7,1.8l0,0c0-0.6,0.1-1.3,0.3-1.9
	c-2.5-0.6-6-2.4-6-8.4c0-1.4,0.4-2.8,1.2-4c0.1-0.2,0.2-0.5,0.2-0.7C4,3.3,4.1,2,4.6,0.8C4.7,0.5,5,0.2,5.4,0.1
	C5.8,0,7.2-0.3,10,1.5c2.2-0.5,4.6-0.5,6.8,0c2.8-1.8,4.2-1.6,4.6-1.4c0.3,0.1,0.6,0.4,0.8,0.7c0.5,1.2,0.6,2.6,0.4,3.9
	c0,0.2,0,0.5,0.1,0.7c0.8,1.2,1.2,2.6,1.2,4c0,6.1-3.5,7.8-6,8.4c0.2,0.6,0.3,1.3,0.3,2v3C18.2,23.4,17.7,24,17.1,24z"/>
</svg>
