<?xml version="1.0" encoding="utf-8"?>
<!-- Generator: Adobe Illustrator 25.0.0, SVG Export Plug-In . SVG Version: 6.00 Build 0)  -->
<svg version="1.1" id="Layer_1" xmlns="http://www.w3.org/2000/svg" xmlns:xlink="http://www.w3.org/1999/xlink" x="0px" y="0px"
	 viewBox="0 0 24 24" style="enable-background:new 0 0 24 24;" xml:space="preserve">
<style type="text/css">
	.st0{fill:#FFFFFF;}
</style>
<path class="st0" d="M4.7,2.7C4.8,3.9,5,5,5.3,6.1L3.7,7.7c-0.5-1.6-0.9-3.3-1-5.1H4.7 M17.9,18.7c1.1,0.3,2.3,0.5,3.5,0.6v2
	c-1.8-0.1-3.5-0.5-5.1-1L17.9,18.7 M6,0H1.3C0.6,0,0,0.6,0,1.3C0,13.9,10.1,24,22.7,24c0.7,0,1.3-0.6,1.3-1.3V18
	c0-0.7-0.6-1.3-1.3-1.3c-1.7,0-3.3-0.3-4.8-0.8c-0.1-0.1-0.3-0.1-0.4-0.1c-0.3,0-0.7,0.1-0.9,0.4l-2.9,2.9c-3.8-1.9-6.9-5-8.8-8.8
	l2.9-2.9c0.4-0.4,0.5-0.9,0.3-1.4C7.6,4.6,7.3,3,7.3,1.3C7.3,0.6,6.7,0,6,0z"/>
</svg>
